<svg width="2772" height="389" viewBox="0 0 2772 389" fill="none" xmlns="http://www.w3.org/2000/svg">
<g clip-path="url(#clip0_13_5)">
<path d="M175.634 61.2422C185.236 63.8152 190.935 73.6852 188.362 83.2876C185.789 92.89 175.919 98.5885 166.316 96.0156L157.258 129.823L123.45 120.764C120.877 130.367 111.007 136.065 101.405 133.492C91.8026 130.919 86.1041 121.049 88.677 111.447L54.8696 102.388L82.3044 0L184.693 27.4348L175.634 61.2422Z" fill="#6CA3E9"/>
<path d="M213.835 328.227C204.232 325.654 198.534 315.784 201.107 306.181C203.68 296.579 213.55 290.88 223.152 293.453L232.211 259.646L266.018 268.705C268.591 259.102 278.461 253.404 288.064 255.977C297.666 258.55 303.365 268.42 300.792 278.022L334.599 287.081L307.164 389.469L204.776 362.034L213.835 328.227Z" fill="#6CA3E9"/>
<path d="M328.227 175.634C325.654 185.236 315.784 190.935 306.181 188.362C296.579 185.789 290.88 175.919 293.453 166.316L259.646 157.258L268.704 123.45C259.102 120.877 253.404 111.007 255.977 101.405C258.549 91.8026 268.42 86.1041 278.022 88.6771L287.081 54.8697L389.469 82.3045L362.034 184.693L328.227 175.634Z" fill="#87B3ED"/>
<path d="M61.2422 213.835C63.8152 204.233 73.6853 198.534 83.2876 201.107C92.89 203.68 98.5885 213.55 96.0156 223.152L129.823 232.211L120.764 266.019C130.367 268.591 136.065 278.462 133.492 288.064C130.919 297.666 121.049 303.365 111.447 300.792L102.388 334.599L0 307.164L27.4348 204.776L61.2422 213.835Z" fill="#4F90E5"/>
<path d="M88.677 111.447C86.1041 121.049 91.8026 130.919 101.405 133.492C111.007 136.065 120.877 130.367 123.45 120.764L157.258 129.823L148.199 163.63L148.647 163.756C157.978 166.512 163.46 176.224 160.927 185.676C158.394 195.128 148.791 200.798 139.332 198.518L138.882 198.404L129.823 232.211L96.0155 223.152C98.5885 213.55 92.89 203.68 83.2876 201.107C73.6852 198.534 63.8152 204.233 61.2422 213.835L27.4348 204.776L54.8696 102.388L88.677 111.447Z" fill="#5B97E7"/>
<path d="M300.792 278.022C303.365 268.42 297.666 258.55 288.064 255.977C278.461 253.404 268.591 259.102 266.018 268.705L232.211 259.646L241.27 225.839C250.872 228.411 260.742 222.713 263.315 213.111C265.888 203.508 260.19 193.638 250.587 191.065L259.646 157.258L293.453 166.316C290.88 175.919 296.579 185.789 306.181 188.362C315.784 190.935 325.654 185.236 328.227 175.634L362.034 184.693L334.599 287.081L300.792 278.022Z" fill="#7AAAEB"/>
<path d="M166.317 96.0156C175.919 98.5885 185.789 92.8901 188.362 83.2877C190.935 73.6853 185.236 63.8152 175.634 61.2423L184.693 27.4349L287.081 54.8697L278.022 88.6771C268.42 86.1041 258.55 91.8026 255.977 101.405C253.404 111.007 259.102 120.877 268.705 123.45L259.646 157.258L225.839 148.199L225.713 148.647C222.957 157.978 213.245 163.46 203.793 160.927C194.191 158.354 188.492 148.484 191.065 138.882L157.258 129.823L166.317 96.0156Z" fill="#7AAAEB"/>
<path d="M111.447 300.792C121.049 303.365 130.919 297.666 133.492 288.064C136.065 278.462 130.367 268.591 120.764 266.018L129.823 232.211L163.63 241.27C161.058 250.872 166.756 260.742 176.358 263.315C185.961 265.888 195.831 260.19 198.404 250.587L232.211 259.646L223.153 293.453C213.55 290.88 203.68 296.579 201.107 306.181C198.534 315.784 204.233 325.654 213.835 328.227L204.776 362.034L102.388 334.599L111.447 300.792Z" fill="#5B97E7"/>
<path d="M494.88 279.431C482.062 279.431 471.012 277.368 461.73 273.243C452.595 268.97 444.197 262.561 436.536 254.016L459.078 231.695C464.087 237.441 469.612 241.935 475.653 245.176C481.841 248.27 488.987 249.817 497.09 249.817C504.457 249.817 510.129 248.491 514.107 245.839C518.232 243.187 520.295 239.504 520.295 234.789C520.295 230.516 518.969 227.054 516.317 224.402C513.665 221.75 510.129 219.466 505.709 217.551C501.436 215.636 496.648 213.794 491.344 212.026C486.187 210.258 481.031 208.269 475.874 206.059C470.717 203.702 465.929 200.829 461.509 197.44C457.236 193.904 453.774 189.558 451.122 184.401C448.47 179.097 447.144 172.467 447.144 164.511C447.144 154.934 449.428 146.684 453.995 139.759C458.71 132.834 465.192 127.604 473.443 124.068C481.694 120.385 491.197 118.543 501.952 118.543C512.855 118.543 522.8 120.458 531.787 124.289C540.922 128.12 548.436 133.35 554.329 139.98L531.787 162.301C527.072 157.439 522.284 153.829 517.422 151.472C512.707 149.115 507.33 147.936 501.289 147.936C495.248 147.936 490.46 149.115 486.924 151.472C483.388 153.682 481.62 156.923 481.62 161.196C481.62 165.174 482.946 168.415 485.598 170.92C488.25 173.277 491.712 175.34 495.985 177.108C500.405 178.876 505.193 180.644 510.35 182.412C515.654 184.18 520.884 186.243 526.041 188.6C531.198 190.957 535.912 193.978 540.185 197.661C544.605 201.197 548.141 205.764 550.793 211.363C553.445 216.814 554.771 223.592 554.771 231.695C554.771 246.576 549.467 258.289 538.859 266.834C528.251 275.232 513.591 279.431 494.88 279.431ZM589.028 277V125.173H622.841V277H589.028ZM564.718 198.324V169.594H647.151V198.324H564.718ZM709.785 279.431C699.914 279.431 691.148 277.442 683.486 273.464C675.972 269.339 670.079 263.74 665.806 256.668C661.534 249.449 659.397 241.198 659.397 231.916V169.594H693.21V231.474C693.21 235.157 693.8 238.325 694.978 240.977C696.304 243.629 698.22 245.692 700.724 247.165C703.229 248.638 706.249 249.375 709.785 249.375C714.795 249.375 718.773 247.828 721.719 244.734C724.666 241.493 726.139 237.073 726.139 231.474V169.594H759.952V231.695C759.952 241.124 757.816 249.449 753.543 256.668C749.271 263.74 743.377 269.339 735.863 273.464C728.349 277.442 719.657 279.431 709.785 279.431ZM826.929 279.21C816.763 279.21 807.702 276.779 799.746 271.917C791.937 267.055 785.749 260.425 781.182 252.027C776.762 243.629 774.552 234.052 774.552 223.297C774.552 212.542 776.762 202.965 781.182 194.567C785.749 186.169 791.937 179.539 799.746 174.677C807.702 169.815 816.763 167.384 826.929 167.384C834.296 167.384 840.926 168.784 846.819 171.583C852.86 174.382 857.795 178.287 861.626 183.296C865.604 188.158 867.814 193.757 868.256 200.092V245.397C867.814 251.732 865.678 257.478 861.847 262.635C858.016 267.644 853.081 271.696 847.04 274.79C840.999 277.737 834.296 279.21 826.929 279.21ZM832.896 248.712C837.758 248.712 841.957 247.681 845.493 245.618C849.029 243.408 851.828 240.388 853.891 236.557C855.954 232.726 856.985 228.306 856.985 223.297C856.985 218.288 855.954 213.941 853.891 210.258C851.976 206.427 849.176 203.407 845.493 201.197C841.957 198.987 837.832 197.882 833.117 197.882C828.402 197.882 824.203 198.987 820.52 201.197C816.984 203.407 814.111 206.427 811.901 210.258C809.838 214.089 808.807 218.435 808.807 223.297C808.807 228.159 809.838 232.505 811.901 236.336C813.964 240.167 816.837 243.187 820.52 245.397C824.203 247.607 828.329 248.712 832.896 248.712ZM888.809 277H855.659V248.049L860.742 221.971L854.996 195.893V116.554H888.809V277ZM912.617 277V169.594H946.43V277H912.617ZM929.634 154.787C924.33 154.787 919.91 153.019 916.374 149.483C912.985 145.8 911.291 141.38 911.291 136.223C911.291 130.919 912.985 126.499 916.374 122.963C919.91 119.427 924.33 117.659 929.634 117.659C934.938 117.659 939.284 119.427 942.673 122.963C946.061 126.499 947.756 130.919 947.756 136.223C947.756 141.38 946.061 145.8 942.673 149.483C939.284 153.019 934.938 154.787 929.634 154.787ZM1021.95 279.431C1010.9 279.431 1000.89 277 991.899 272.138C983.059 267.129 976.06 260.351 970.904 251.806C965.747 243.261 963.169 233.684 963.169 223.076C963.169 212.468 965.747 202.965 970.904 194.567C976.06 186.169 983.059 179.539 991.899 174.677C1000.74 169.668 1010.76 167.163 1021.95 167.163C1033.15 167.163 1043.17 169.594 1052.01 174.456C1060.85 179.318 1067.85 186.022 1073.01 194.567C1078.16 202.965 1080.74 212.468 1080.74 223.076C1080.74 233.684 1078.16 243.261 1073.01 251.806C1067.85 260.351 1060.85 267.129 1052.01 272.138C1043.17 277 1033.15 279.431 1021.95 279.431ZM1021.95 248.712C1026.82 248.712 1031.09 247.681 1034.77 245.618C1038.46 243.408 1041.26 240.388 1043.17 236.557C1045.23 232.579 1046.26 228.085 1046.26 223.076C1046.26 218.067 1045.23 213.72 1043.17 210.037C1041.11 206.206 1038.23 203.26 1034.55 201.197C1031.02 198.987 1026.82 197.882 1021.95 197.882C1017.24 197.882 1013.04 198.987 1009.36 201.197C1005.67 203.26 1002.8 206.206 1000.74 210.037C998.676 213.868 997.645 218.288 997.645 223.297C997.645 228.159 998.676 232.579 1000.74 236.557C1002.8 240.388 1005.67 243.408 1009.36 245.618C1013.04 247.681 1017.24 248.712 1021.95 248.712ZM1169.27 220.203V193.241H1202.87C1207.14 193.241 1211.04 192.357 1214.58 190.589C1218.11 188.821 1220.91 186.243 1222.98 182.854C1225.04 179.465 1226.07 175.34 1226.07 170.478C1226.07 165.763 1225.04 161.712 1222.98 158.323C1220.91 154.934 1218.11 152.356 1214.58 150.588C1211.04 148.82 1207.14 147.936 1202.87 147.936H1169.27V120.974H1207.95C1217.82 120.974 1226.73 122.963 1234.69 126.941C1242.65 130.919 1248.91 136.665 1253.47 144.179C1258.19 151.546 1260.55 160.312 1260.55 170.478C1260.55 180.644 1258.19 189.484 1253.47 196.998C1248.91 204.365 1242.65 210.111 1234.69 214.236C1226.73 218.214 1217.82 220.203 1207.95 220.203H1169.27ZM1142.75 277V120.974H1177.45V277H1142.75ZM1278.43 277V116.554H1312.25V277H1278.43ZM1383.79 279.431C1373.92 279.431 1365.15 277.442 1357.49 273.464C1349.98 269.339 1344.09 263.74 1339.81 256.668C1335.54 249.449 1333.4 241.198 1333.4 231.916V169.594H1367.22V231.474C1367.22 235.157 1367.81 238.325 1368.99 240.977C1370.31 243.629 1372.23 245.692 1374.73 247.165C1377.24 248.638 1380.26 249.375 1383.79 249.375C1388.8 249.375 1392.78 247.828 1395.73 244.734C1398.67 241.493 1400.15 237.073 1400.15 231.474V169.594H1433.96V231.695C1433.96 241.124 1431.82 249.449 1427.55 256.668C1423.28 263.74 1417.38 269.339 1409.87 273.464C1402.36 277.442 1393.66 279.431 1383.79 279.431ZM1500.71 325.178C1488.93 325.178 1478.54 323.115 1469.55 318.99C1460.71 315.012 1453.72 309.34 1448.56 301.973L1469.33 281.199C1473.16 285.766 1477.44 289.229 1482.15 291.586C1487.01 293.943 1492.83 295.122 1499.61 295.122C1508.01 295.122 1514.56 293.059 1519.28 288.934C1524.14 284.809 1526.57 278.989 1526.57 271.475V244.071L1532.32 220.645L1527.23 197.219V169.594H1560.38V270.591C1560.38 281.641 1557.81 291.218 1552.65 299.321C1547.49 307.424 1540.42 313.76 1531.43 318.327C1522.45 322.894 1512.21 325.178 1500.71 325.178ZM1499.17 273.685C1489.3 273.685 1480.53 271.328 1472.87 266.613C1465.21 261.898 1459.17 255.489 1454.75 247.386C1450.33 239.283 1448.12 230.295 1448.12 220.424C1448.12 210.405 1450.33 201.418 1454.75 193.462C1459.17 185.359 1465.21 179.023 1472.87 174.456C1480.53 169.741 1489.3 167.384 1499.17 167.384C1506.53 167.384 1513.09 168.784 1518.84 171.583C1524.73 174.235 1529.44 178.066 1532.98 183.075C1536.66 187.937 1538.73 193.609 1539.17 200.092V240.977C1538.73 247.312 1536.66 252.985 1532.98 257.994C1529.44 262.856 1524.73 266.687 1518.84 269.486C1512.94 272.285 1506.39 273.685 1499.17 273.685ZM1505.58 243.629C1510.29 243.629 1514.34 242.598 1517.73 240.535C1521.27 238.472 1523.92 235.747 1525.69 232.358C1527.6 228.822 1528.56 224.844 1528.56 220.424C1528.56 216.004 1527.6 212.026 1525.69 208.49C1523.92 204.954 1521.27 202.155 1517.73 200.092C1514.34 198.029 1510.29 196.998 1505.58 196.998C1501.01 196.998 1496.96 198.029 1493.42 200.092C1489.89 202.155 1487.16 204.954 1485.24 208.49C1483.33 212.026 1482.37 216.004 1482.37 220.424C1482.37 224.549 1483.33 228.454 1485.24 232.137C1487.16 235.673 1489.81 238.472 1493.2 240.535C1496.74 242.598 1500.86 243.629 1505.58 243.629ZM1584.25 277V169.594H1618.06V277H1584.25ZM1601.27 154.787C1595.96 154.787 1591.54 153.019 1588.01 149.483C1584.62 145.8 1582.92 141.38 1582.92 136.223C1582.92 130.919 1584.62 126.499 1588.01 122.963C1591.54 119.427 1595.96 117.659 1601.27 117.659C1606.57 117.659 1610.92 119.427 1614.31 122.963C1617.69 126.499 1619.39 130.919 1619.39 136.223C1619.39 141.38 1617.69 145.8 1614.31 149.483C1610.92 153.019 1606.57 154.787 1601.27 154.787ZM1712.81 277V215.783C1712.81 210.184 1711.05 205.691 1707.51 202.302C1704.12 198.766 1699.78 196.998 1694.47 196.998C1690.79 196.998 1687.55 197.808 1684.75 199.429C1681.95 200.902 1679.74 203.112 1678.12 206.059C1676.5 208.858 1675.69 212.1 1675.69 215.783L1662.65 209.374C1662.65 200.976 1664.49 193.609 1668.17 187.274C1671.86 180.939 1676.94 176.077 1683.42 172.688C1690.05 169.152 1697.49 167.384 1705.74 167.384C1713.7 167.384 1720.7 169.299 1726.74 173.13C1732.93 176.813 1737.79 181.749 1741.32 187.937C1744.86 194.125 1746.63 200.902 1746.63 208.269V277H1712.81ZM1641.87 277V169.594H1675.69V277H1641.87ZM1813.52 277V120.974H1848.22V277H1813.52ZM1840.04 277V246.944H1925.57V277H1840.04ZM1840.04 211.805V182.854H1917.84V211.805H1840.04ZM1840.04 150.809V120.974H1924.47V150.809H1840.04ZM2017.34 277V215.783C2017.34 210.184 2015.57 205.691 2012.03 202.302C2008.64 198.766 2004.3 196.998 1998.99 196.998C1995.31 196.998 1992.07 197.808 1989.27 199.429C1986.47 200.902 1984.26 203.112 1982.64 206.059C1981.02 208.858 1980.21 212.1 1980.21 215.783L1967.17 209.374C1967.17 200.976 1969.01 193.609 1972.69 187.274C1976.38 180.939 1981.46 176.077 1987.94 172.688C1994.57 169.152 2002.01 167.384 2010.26 167.384C2018.22 167.384 2025.22 169.299 2031.26 173.13C2037.45 176.813 2042.31 181.749 2045.85 187.937C2049.38 194.125 2051.15 200.902 2051.15 208.269V277H2017.34ZM1946.4 277V169.594H1980.21V277H1946.4ZM2143.81 277V215.783C2143.81 210.184 2142.04 205.691 2138.5 202.302C2135.11 198.766 2130.77 196.998 2125.46 196.998C2121.78 196.998 2118.54 197.808 2115.74 199.429C2112.94 200.902 2110.73 203.112 2109.11 206.059C2107.49 208.858 2106.68 212.1 2106.68 215.783L2093.64 209.374C2093.64 200.976 2095.41 193.609 2098.94 187.274C2102.48 180.939 2107.42 176.077 2113.75 172.688C2120.09 169.152 2127.38 167.384 2135.63 167.384C2144.03 167.384 2151.4 169.152 2157.73 172.688C2164.07 176.077 2168.93 180.865 2172.32 187.053C2175.85 193.094 2177.62 200.166 2177.62 208.269V277H2143.81ZM2072.87 277V116.554H2106.68V277H2072.87ZM2244.2 279.21C2234.33 279.21 2225.49 276.779 2217.68 271.917C2210.02 267.055 2203.9 260.425 2199.34 252.027C2194.92 243.629 2192.71 234.052 2192.71 223.297C2192.71 212.542 2194.92 202.965 2199.34 194.567C2203.9 186.169 2210.02 179.539 2217.68 174.677C2225.49 169.815 2234.33 167.384 2244.2 167.384C2251.42 167.384 2257.9 168.784 2263.65 171.583C2269.54 174.382 2274.33 178.287 2278.01 183.296C2281.7 188.158 2283.76 193.757 2284.2 200.092V246.502C2283.76 252.837 2281.7 258.51 2278.01 263.519C2274.48 268.381 2269.76 272.212 2263.87 275.011C2257.98 277.81 2251.42 279.21 2244.2 279.21ZM2251.05 248.712C2258.27 248.712 2264.09 246.355 2268.51 241.64C2272.93 236.778 2275.14 230.664 2275.14 223.297C2275.14 218.288 2274.11 213.868 2272.05 210.037C2270.13 206.206 2267.33 203.26 2263.65 201.197C2260.11 198.987 2255.99 197.882 2251.27 197.882C2246.56 197.882 2242.36 198.987 2238.68 201.197C2235.14 203.26 2232.27 206.206 2230.06 210.037C2227.99 213.868 2226.96 218.288 2226.96 223.297C2226.96 228.159 2227.99 232.505 2230.06 236.336C2232.12 240.167 2234.99 243.187 2238.68 245.397C2242.36 247.607 2246.48 248.712 2251.05 248.712ZM2273.81 277V248.049L2278.9 221.971L2273.81 195.893V169.594H2306.96V277H2273.81ZM2401.71 277V215.783C2401.71 210.184 2399.94 205.691 2396.41 202.302C2393.02 198.766 2388.67 196.998 2383.37 196.998C2379.69 196.998 2376.45 197.808 2373.65 199.429C2370.85 200.902 2368.64 203.112 2367.02 206.059C2365.4 208.858 2364.58 212.1 2364.58 215.783L2351.55 209.374C2351.55 200.976 2353.39 193.609 2357.07 187.274C2360.75 180.939 2365.84 176.077 2372.32 172.688C2378.95 169.152 2386.39 167.384 2394.64 167.384C2402.6 167.384 2409.6 169.299 2415.64 173.13C2421.82 176.813 2426.69 181.749 2430.22 187.937C2433.76 194.125 2435.53 200.902 2435.53 208.269V277H2401.71ZM2330.77 277V169.594H2364.58V277H2330.77ZM2509.18 279.431C2498.13 279.431 2488.11 277 2479.12 272.138C2470.13 267.276 2463.06 260.572 2457.91 252.027C2452.75 243.482 2450.17 233.905 2450.17 223.297C2450.17 212.542 2452.75 202.965 2457.91 194.567C2463.21 186.022 2470.36 179.318 2479.34 174.456C2488.33 169.594 2498.42 167.163 2509.62 167.163C2518.02 167.163 2525.68 168.636 2532.6 171.583C2539.68 174.382 2545.94 178.655 2551.39 184.401L2529.73 206.059C2527.23 203.26 2524.28 201.197 2520.89 199.871C2517.65 198.545 2513.89 197.882 2509.62 197.882C2504.76 197.882 2500.41 198.987 2496.58 201.197C2492.9 203.26 2489.95 206.206 2487.74 210.037C2485.68 213.72 2484.65 218.067 2484.65 223.076C2484.65 228.085 2485.68 232.505 2487.74 236.336C2489.95 240.167 2492.97 243.187 2496.8 245.397C2500.63 247.607 2504.9 248.712 2509.62 248.712C2514.04 248.712 2517.94 247.975 2521.33 246.502C2524.87 244.881 2527.89 242.671 2530.39 239.872L2551.83 261.53C2546.23 267.423 2539.9 271.917 2532.82 275.011C2525.75 277.958 2517.87 279.431 2509.18 279.431ZM2617.33 279.431C2605.69 279.431 2595.3 277.074 2586.17 272.359C2577.18 267.497 2570.11 260.793 2564.95 252.248C2559.8 243.703 2557.22 234.052 2557.22 223.297C2557.22 212.542 2559.72 202.965 2564.73 194.567C2569.89 186.022 2576.81 179.318 2585.51 174.456C2594.2 169.594 2604 167.163 2614.9 167.163C2625.51 167.163 2634.86 169.447 2642.97 174.014C2651.07 178.581 2657.4 184.917 2661.97 193.02C2666.69 201.123 2669.04 210.405 2669.04 220.866C2669.04 222.781 2668.9 224.844 2668.6 227.054C2668.45 229.117 2668.09 231.548 2667.5 234.347L2574.9 234.568V211.363L2653.13 211.142L2638.55 220.866C2638.4 214.678 2637.44 209.595 2635.67 205.617C2633.9 201.492 2631.25 198.398 2627.72 196.335C2624.33 194.125 2620.13 193.02 2615.12 193.02C2609.82 193.02 2605.17 194.272 2601.2 196.777C2597.37 199.134 2594.35 202.523 2592.14 206.943C2590.07 211.363 2589.04 216.741 2589.04 223.076C2589.04 229.411 2590.15 234.863 2592.36 239.43C2594.71 243.85 2597.96 247.312 2602.08 249.817C2606.35 252.174 2611.36 253.353 2617.11 253.353C2622.41 253.353 2627.2 252.469 2631.47 250.701C2635.75 248.786 2639.5 245.986 2642.74 242.303L2661.31 260.867C2656 267.055 2649.6 271.696 2642.08 274.79C2634.57 277.884 2626.32 279.431 2617.33 279.431ZM2685.36 277V169.594H2719.18V277H2685.36ZM2719.18 217.993L2705.03 206.943C2707.83 194.42 2712.55 184.696 2719.18 177.771C2725.81 170.846 2735.02 167.384 2746.8 167.384C2751.96 167.384 2756.45 168.194 2760.28 169.815C2764.26 171.288 2767.72 173.646 2770.67 176.887L2750.56 202.302C2749.09 200.681 2747.24 199.429 2745.03 198.545C2742.82 197.661 2740.32 197.219 2737.52 197.219C2731.92 197.219 2727.43 198.987 2724.04 202.523C2720.8 205.912 2719.18 211.068 2719.18 217.993Z" fill="url(#paint0_linear_13_5)"/>
</g>
<defs>
<linearGradient id="paint0_linear_13_5" x1="433" y1="334" x2="2771.92" y2="55.2869" gradientUnits="userSpaceOnUse">
<stop stop-color="#4F90E5"/>
<stop offset="1" stop-color="#87B3ED"/>
</linearGradient>
<clipPath id="clip0_13_5">
<rect width="2772" height="389" fill="white"/>
</clipPath>
</defs>
</svg>
